<svg width="117" height="117" viewBox="0 0 117 117" fill="none" xmlns="http://www.w3.org/2000/svg">
<circle cx="58.5" cy="58.5" r="56" fill="white" stroke="#0099A1" stroke-width="5"/>
<path d="M24 50.0277V87.7862C24 92.1143 27.5072 95.6215 31.8353 95.6215H85.1647C89.4929 95.6215 93 92.1143 93 87.7862V59.6041C93 55.8483 90.3385 52.7142 86.8064 51.9431V26.1489C86.8064 23.3132 84.4932 21 81.6576 21H35.3425C32.5068 21 30.1936 23.3132 30.1936 26.1489V42.3666C26.6615 43.1376 24 46.2718 24 50.0277V50.0277ZM71.9319 78.4087C71.9319 79.7769 70.8126 80.8961 69.4445 80.8961H65.7135V84.6272C65.7135 85.9954 64.5941 87.1146 63.2261 87.1146H53.7739C52.4059 87.1146 51.2865 85.9954 51.2865 84.6272V80.8961H47.5554C46.1874 80.8961 45.0681 79.7769 45.0681 78.4087V68.9816C45.0681 67.6136 46.1874 66.4942 47.5554 66.4942H51.2865V62.7631C51.2865 61.3951 52.4059 60.2758 53.7739 60.2758H63.2261C64.5941 60.2758 65.7135 61.3951 65.7135 62.7631V66.4942H69.4445C70.8126 66.4942 71.9319 67.6136 71.9319 68.9816V78.4087ZM35.1684 26.1489C35.1684 26.0493 35.243 25.9748 35.3425 25.9748H81.6576C81.757 25.9748 81.8317 26.0493 81.8317 26.1489V51.7689H61.8579C60.7635 51.7689 59.7686 51.1471 59.296 50.1521L57.6295 46.6449C56.336 43.9336 53.5501 42.1924 50.5653 42.1924H35.1684V26.1489Z" fill="#0099A1"/>
<path d="M60.7364 68.9821V65.251H56.2589V68.9821C56.2589 70.3501 55.1645 71.4694 53.7716 71.4694H50.0405V75.9218H53.7716C55.1645 75.9218 56.2589 77.0412 56.2589 78.4092V82.1403H60.7364V78.4092C60.7364 77.0412 61.8308 75.9218 63.2237 75.9218H66.9548V71.4694H63.2237C61.8308 71.4694 60.7364 70.3501 60.7364 68.9821Z" fill="#0099A1"/>
<path d="M40.3474 33.0006H57.1883C58.5631 33.0006 59.6757 31.8869 59.6757 30.5133C59.6757 29.1396 58.5631 28.0259 57.1883 28.0259H40.3474C38.9726 28.0259 37.86 29.1396 37.86 30.5133C37.86 31.8869 38.9726 33.0006 40.3474 33.0006Z" fill="#0099A1"/>
<path d="M59.6756 37.6593C59.6756 36.2856 58.5631 35.1719 57.1883 35.1719H40.3474C38.9726 35.1719 37.86 36.2856 37.86 37.6593C37.86 39.0329 38.9726 40.1466 40.3474 40.1466H57.1883C58.5631 40.1466 59.6756 39.0329 59.6756 37.6593V37.6593Z" fill="#0099A1"/>
<path d="M70.8104 44.9527C75.4618 44.9527 79.2674 41.147 79.2674 36.4956C79.2674 31.8193 75.4617 28.0137 70.8104 28.0137C66.1341 28.0137 62.3532 31.8193 62.3532 36.4956C62.3532 41.147 66.1341 44.9527 70.8104 44.9527ZM70.8104 32.9884C72.7255 32.9884 74.2926 34.5555 74.2926 36.4956C74.2926 38.4109 72.7255 39.978 70.8104 39.978C68.895 39.978 67.328 38.4109 67.328 36.4956C67.328 34.5555 68.895 32.9884 70.8104 32.9884V32.9884Z" fill="#0099A1"/>
</svg>
