<svg width="117" height="117" viewBox="0 0 117 117" fill="none" xmlns="http://www.w3.org/2000/svg">
<circle cx="58.5" cy="58.5" r="56" fill="white" stroke="#0099A1" stroke-width="5"/>
<circle cx="73.5" cy="82.5" r="18.5" fill="white"/>
<path d="M59 74C56.2611 73.9999 53.6284 72.9303 51.6535 71.0153C49.6786 69.1003 48.5147 66.4885 48.4056 63.7269L47.0082 28.1198C46.9521 26.6805 47.1846 25.2446 47.6917 23.8982C48.1989 22.5517 48.9702 21.3225 49.9595 20.2841C50.9488 19.2458 52.1357 18.4197 53.4491 17.8553C54.7624 17.291 56.1751 17.0001 57.6026 17H60.3974C61.8249 17.0001 63.2376 17.291 64.5509 17.8553C65.8643 18.4197 67.0512 19.2458 68.0405 20.2841C69.0298 21.3225 69.8011 22.5517 70.3083 23.8982C70.8154 25.2446 71.0479 26.6805 70.9918 28.1198L69.5944 63.7269C69.4853 66.4885 68.3214 69.1003 66.3465 71.0153C64.3716 72.9303 61.7389 73.9999 59 74Z" fill="#0099A1"/>
<path d="M70 89.5C70 83.701 65.0751 79 59 79C52.9249 79 48 83.701 48 89.5C48 95.299 52.9249 100 59 100C65.0751 100 70 95.299 70 89.5Z" fill="#0099A1"/>
</svg>
