<svg width="117" height="117" viewBox="0 0 117 117" fill="none" xmlns="http://www.w3.org/2000/svg">
<circle cx="58.5" cy="58.5" r="56" fill="white" stroke="#0099A1" stroke-width="5"/>
<path d="M25.0001 70.9457C25.0001 74.695 26.4594 78.2423 29.1311 80.8915C31.8701 83.6305 35.4622 85 39.0768 85C42.6914 85 46.2835 83.6305 49.0225 80.8915L73.494 56.42C74.9268 57.3475 76.6352 57.7534 78.332 57.5694C80.0288 57.3854 81.6105 56.6228 82.8111 55.4097C85.7297 52.4911 85.7297 47.7315 82.8111 44.8129L65.2096 27.189C62.291 24.2703 57.5314 24.2703 54.5904 27.189C53.392 28.4029 52.6399 29.9867 52.4564 31.6826C52.273 33.3784 52.669 35.0864 53.5801 36.5285L29.1311 60.9775C27.8161 62.2823 26.7738 63.8355 26.0646 65.5468C25.3554 67.2581 24.9936 69.0933 25.0001 70.9457ZM57.7784 30.377C58.056 30.0966 58.3865 29.8741 58.7506 29.7222C59.1148 29.5704 59.5054 29.4922 59.9 29.4922C60.2946 29.4922 60.6852 29.5704 61.0494 29.7222C61.4135 29.8741 61.744 30.0966 62.0216 30.377L79.6455 47.9785C80.813 49.1459 80.813 51.0543 79.6455 52.2442C78.4557 53.4116 76.5473 53.4116 75.3799 52.2442L58.205 35.0692L57.7784 34.6202C57.2177 34.0565 56.9029 33.2937 56.9029 32.4986C56.9029 31.7035 57.2177 30.9407 57.7784 30.377ZM56.6334 39.8288L68.1282 51.3237C66.4444 50.5154 64.5586 49.6174 60.944 49.6174C57.3294 49.6174 55.4435 50.5154 53.7597 51.3237C52.3004 52.0421 51.1329 52.6034 48.5511 52.6034C46.7101 52.6034 45.5876 52.3115 44.5548 51.8849L56.6334 39.8288ZM85.393 61.8756C84.5847 61.2694 83.4847 61.2694 82.6764 61.8756C82.3846 62.1001 75.7166 67.2413 75.7166 74.4481C75.7166 76.6542 76.593 78.7699 78.1529 80.3298C79.7129 81.8898 81.8286 82.7661 84.0347 82.7661C86.2408 82.7661 88.3565 81.8898 89.9164 80.3298C91.4764 78.7699 92.3528 76.6542 92.3528 74.4481C92.3528 67.2413 85.6848 62.1001 85.393 61.8756Z" fill="#0099A1"/>
</svg>
