<svg width="117" height="117" viewBox="0 0 117 117" fill="none" xmlns="http://www.w3.org/2000/svg">
<circle cx="58.5" cy="58.5" r="56" fill="white" stroke="#0099A1" stroke-width="5"/>
<path d="M75.3034 65.7956L78.9683 62.1307C80.592 60.507 80.592 57.8742 78.9684 56.2506L59.7496 37.0318C58.1258 35.408 55.4931 35.408 53.8694 37.0318L50.2045 40.6967M75.3034 65.7956L50.2045 40.6967M75.3034 65.7956L71.9777 69.1213C68.7975 72.3015 64.0716 72.9918 60.2208 71.1909L50.4291 80.9826C46.1733 85.2385 39.2733 85.2385 35.0175 80.9826C30.7616 76.7268 30.7616 69.8268 35.0175 65.5709L44.8092 55.7792C43.0083 51.9284 43.6984 47.2026 46.8788 44.0223L50.2045 40.6967" stroke="#0099A1" stroke-width="5" stroke-miterlimit="10" stroke-linecap="round" stroke-linejoin="round"/>
<path d="M75.3883 52.6703C75.5881 52.5041 75.7802 52.3289 75.964 52.1452C79.3084 48.8008 79.3084 43.3803 75.964 40.036C72.6197 36.6916 67.1992 36.6916 63.8548 40.036C63.6712 40.2198 63.4959 40.4119 63.3297 40.6117M73.8315 28.5199C80.5616 30.1405 85.8594 35.4384 87.4801 42.1685M73.8315 19C85.7318 20.8682 95.1318 30.2682 97 42.1685M76.1387 94.0384H33.9939C29.5538 94.0384 27.33 88.67 30.4698 85.5302L35.0171 80.9829M55.511 60.489L52.553 63.447M45.5474 70.4526L45.6252 70.5305" stroke="#0099A1" stroke-width="5" stroke-miterlimit="10" stroke-linecap="round" stroke-linejoin="round"/>
<path d="M50.3706 41L73.3821 64.3303L65.0116 72.5865L61.5519 69.0789L52.0299 78.4937C50.3626 81.7451 46.7223 84 42.5 84C36.701 84 32 79.7467 32 74.5C32 71.196 33.8642 68.2859 36.6929 66.5839L34.9451 64.8162L46.2868 53.6023L42 49.2562L50.3706 41Z" fill="#0099A1"/>
</svg>
