<svg width="117" height="117" viewBox="0 0 117 117" fill="none" xmlns="http://www.w3.org/2000/svg">
<circle cx="58.5" cy="58.5" r="56" fill="white" stroke="#0099A1" stroke-width="5"/>
<path d="M87.3372 41.2814L71.8221 35.6001C69.6998 40.6155 64.7514 44.1415 58.9998 44.1415C53.2487 44.1415 48.3006 40.6155 46.1782 35.6001L30.663 41.2814C27.1018 42.5853 25.1657 46.5453 26.3463 50.1099C26.9467 51.9217 28.2172 53.3762 29.9242 54.2059C31.632 55.036 33.5535 55.1338 35.3357 54.4815L39.6976 52.8843C39.9671 57.0866 41.572 61.0584 44.2988 64.2622V93.9656C44.2988 97.5688 47.213 100.5 50.794 100.5C54.0073 100.5 56.7052 98.1824 57.2087 94.9903L58.9998 83.6367L60.7914 94.9896C61.295 98.1824 63.9928 100.5 67.2062 100.5C70.787 100.5 73.7007 97.5688 73.7007 93.9655V64.2622C76.4282 61.0584 78.033 57.0861 78.3026 52.8836L82.6646 54.4813C84.4465 55.1338 86.3682 55.036 88.076 54.2057C89.7828 53.3762 91.0536 51.9217 91.6537 50.1093C92.8344 46.5456 90.8976 42.5853 87.3372 41.2814Z" fill="#0099A1"/>
<circle cx="59" cy="29" r="9" stroke="#0099A1" stroke-width="4"/>
</svg>
