<svg width="117" height="117" viewBox="0 0 117 117" fill="none" xmlns="http://www.w3.org/2000/svg">
<circle cx="58.5" cy="58.5" r="56" fill="white" stroke="#0099A1" stroke-width="5"/>
<path d="M28.5955 23.0789C27.9772 23.241 27.4485 23.6419 27.1257 24.1936C26.8028 24.7452 26.7122 25.4025 26.8737 26.021C26.9533 26.3345 28.9693 33.7428 37.2434 40.4903C38.32 41.3531 39.618 41.8949 40.9885 42.0536C42.359 42.2123 43.7465 41.9814 44.9917 41.3874C52.7714 37.6736 63.2279 37.6736 71.0052 41.3874C72.2498 41.9839 73.6378 42.2162 75.0089 42.0575C76.3799 41.8988 77.6781 41.3555 78.7535 40.4903C87.03 33.7428 89.0461 26.3345 89.1257 26.021C89.2866 25.4051 89.1967 24.7505 88.8757 24.2008C88.5548 23.6511 88.0289 23.2511 87.4134 23.0885C86.7969 22.9241 86.1404 23.0107 85.5876 23.3293C85.0348 23.648 84.6308 24.1728 84.4641 24.7887C84.4472 24.8514 82.6916 31.0563 75.7077 36.75C75.3421 37.0408 74.9015 37.2218 74.4371 37.2722C73.9726 37.3226 73.5034 37.2402 73.084 37.0346C64.0165 32.7082 51.9828 32.7082 42.9154 37.0346C42.0448 37.4518 41.0151 37.3408 40.2916 36.7524C33.327 31.0732 31.5617 24.8851 31.5376 24.7911C31.3735 24.1746 30.9717 23.6482 30.4202 23.3273C29.8688 23.0064 29.2127 22.917 28.5955 23.0789Z" fill="#0099A1"/>
<path d="M22.3857 36.4317C22.5304 36.6488 25.8342 41.9542 29.9098 46.078C30.6573 46.8256 30.8985 47.9349 30.4644 48.8271C24.5489 61.3118 32.3647 74.2932 45.826 79.0922C46.2119 79.2369 46.9112 79.5504 47.273 80.2015C48.527 82.5407 50.0463 86.6404 50.0463 92.9346C50.0463 94.2609 51.1315 95.3461 52.4578 95.3461H63.551C64.8774 95.3461 65.9626 94.2609 65.9626 92.9346C65.9626 86.6404 67.4818 82.5407 68.7359 80.2015C69.0976 79.5504 69.7969 79.2369 70.1828 79.0922C80.6321 75.2 87.3893 67.2539 87.546 57.4605C87.5406 54.4684 86.8562 51.5164 85.5444 48.8271C85.1103 47.9349 85.3515 46.8256 86.0991 46.078C90.1746 41.9542 93.4784 36.6488 93.6231 36.4317C95.2437 33.7501 91.2164 31.1962 89.5235 33.8755C89.4994 33.9237 86.3402 38.9639 82.6747 42.6777C80.4801 44.8963 79.8773 48.2001 81.2036 50.9252C82.3009 53.2524 82.8796 55.7122 82.6747 58.2081H73.7278C72.6908 58.2081 71.7503 57.5811 71.3645 56.6406C70.4932 54.4099 68.9673 52.4951 66.9873 51.1478C65.0074 49.8006 62.6661 49.0841 60.2713 49.0924H55.7375C50.9193 49.0442 46.3421 52.1599 44.6444 56.6406C44.2585 57.5811 43.318 58.2081 42.281 58.2081H33.3342C33.1268 55.7122 33.7055 53.2524 34.8052 50.9252C36.1316 48.2001 35.5287 44.8963 33.3342 42.6777C29.6686 38.9639 26.5095 33.9237 26.4853 33.8755C24.8334 31.2228 20.7314 33.7211 22.3857 36.4317Z" fill="#0099A1"/>
<circle cx="73.5" cy="82.5" r="18.5" fill="white"/>
<path d="M70.372 88.3153C70.5469 88.316 70.7202 88.2823 70.882 88.2161C71.0441 88.1498 71.1915 88.0522 71.3159 87.9289L71.3159 87.9289L71.3184 87.9264L79.5895 79.6053C79.7148 79.4827 79.8146 79.3366 79.8833 79.1754C79.9526 79.0126 79.9888 78.8377 79.9899 78.6608C79.9909 78.4839 79.9567 78.3086 79.8892 78.1451C79.8217 77.9816 79.7224 77.8331 79.597 77.7084C79.4715 77.5837 79.3225 77.4852 79.1586 77.4186C78.9947 77.3521 78.8192 77.3189 78.6423 77.3209C78.4654 77.3229 78.2907 77.3601 78.1284 77.4304C77.9675 77.5 77.822 77.6006 77.7001 77.7266L70.3626 85.1022L67.9285 82.7045L67.9185 82.6947L67.908 82.6854C67.6522 82.4604 67.32 82.3418 66.9797 82.3541C66.6393 82.3665 66.3165 82.5087 66.0777 82.7516C65.8389 82.9945 65.7022 83.3196 65.6957 83.6601C65.6892 84.0007 65.8133 84.3308 66.0426 84.5827L66.0517 84.5927L66.0614 84.6022L69.4399 87.9316C69.4399 87.9316 69.4399 87.9316 69.44 87.9316C69.44 87.9317 69.44 87.9317 69.44 87.9317C69.6885 88.1767 70.0231 88.3144 70.372 88.3153ZM70.372 88.3153C70.3718 88.3153 70.3715 88.3153 70.3712 88.3153L70.3736 87.8153L70.3725 88.3153C70.3724 88.3153 70.3722 88.3153 70.372 88.3153Z" fill="#0099A1" stroke="#0099A1"/>
<path d="M64.4971 94.1418H81.1447C81.9395 94.1418 82.7019 93.826 83.264 93.264C83.826 92.7019 84.1418 91.9395 84.1418 91.1447V74.4971C84.1418 73.7022 83.826 72.9399 83.264 72.3778C82.7019 71.8158 81.9395 71.5 81.1447 71.5H64.4971C63.7022 71.5 62.9399 71.8158 62.3778 72.3778C61.8158 72.9399 61.5 73.7022 61.5 74.4971V91.1447C61.5 91.9395 61.8158 92.7019 62.3778 93.264C62.9399 93.826 63.7022 94.1418 64.4971 94.1418ZM64.2621 74.2621C64.3244 74.1998 64.409 74.1648 64.4971 74.1648H81.1447C81.2328 74.1648 81.3174 74.1998 81.3797 74.2621C81.442 74.3244 81.477 74.409 81.477 74.4971V91.1447C81.477 91.2328 81.442 91.3174 81.3797 91.3797C81.3174 91.442 81.2328 91.477 81.1447 91.477H64.4971C64.409 91.477 64.3244 91.442 64.2621 91.3797C64.1998 91.3174 64.1648 91.2328 64.1648 91.1447V74.4971C64.1648 74.409 64.1998 74.3244 64.2621 74.2621Z" fill="#0099A1" stroke="#0099A1"/>
</svg>
