<svg width="117" height="117" viewBox="0 0 117 117" fill="none" xmlns="http://www.w3.org/2000/svg">
<circle cx="58.5" cy="58.5" r="56" fill="white" stroke="#0099A1" stroke-width="5"/>
<path d="M79.9857 96.6156C84.4197 96.6156 88 93.0354 88 88.6013V36.1371C88 31.7031 84.4196 28.123 79.9857 28.123H76.4055C76.0475 25.4239 73.7616 23.331 70.9526 23.331H69.906C69.4103 18.7868 66.133 15.0413 61.7265 14.1876C58.6695 13.6092 55.585 14.3804 53.2166 16.3356C51.0959 18.0982 49.7741 20.6043 49.5261 23.331H47.0475C44.2385 23.331 41.9526 25.4239 41.5945 28.1229H38.0143C33.5803 28.1229 30 31.7031 30 36.1371V88.6013C30 93.0354 33.5804 96.6156 38.0143 96.6156H79.9857ZM35.5081 88.6013V36.1371C35.5081 34.7601 36.6373 33.631 38.0143 33.631H41.5945C41.9526 36.3299 44.2384 38.423 47.0474 38.423H70.9525C73.7615 38.423 76.0474 36.3299 76.4055 33.631H79.9857C81.3627 33.631 82.4919 34.7601 82.4919 36.1371V88.6013C82.4919 89.9783 81.3627 91.1076 79.9857 91.1076H38.0143C36.6373 91.1076 35.5081 89.9783 35.5081 88.6013V88.6013Z" fill="#0099A1"/>
<path d="M46 63.983L48.7119 66.6949L54.1356 61.2712M46 47.7119L48.7119 50.4237L54.1356 45M46 80.2542L48.7119 82.9661L54.1356 77.5424" stroke="#0099A1" stroke-width="5" stroke-miterlimit="10" stroke-linecap="round" stroke-linejoin="round"/>
<path d="M65 47H75" stroke="#0099A1" stroke-width="5" stroke-miterlimit="10" stroke-linecap="round" stroke-linejoin="round"/>
<path d="M65 64H75" stroke="#0099A1" stroke-width="5" stroke-miterlimit="10" stroke-linecap="round" stroke-linejoin="round"/>
<path d="M65 81H75" stroke="#0099A1" stroke-width="5" stroke-miterlimit="10" stroke-linecap="round" stroke-linejoin="round"/>
</svg>
